<?xml version="1.0" standalone="no"?>
<!DOCTYPE svg PUBLIC "-//W3C//DTD SVG 20010904//EN"
 "http://www.w3.org/TR/2001/REC-SVG-20010904/DTD/svg10.dtd">
<svg version="1.0" xmlns="http://www.w3.org/2000/svg"
 width="463.000000pt" height="411.000000pt" viewBox="0 0 463.000000 411.000000"
 preserveAspectRatio="xMidYMid meet">

<g transform="translate(0.000000,411.000000) scale(0.100000,-0.100000)"
fill="#FFFFFF" stroke="none">
<path d="M1999 3197 c-43 -22 -1341 -989 -1380 -1028 -19 -19 -26 -79 -13
-114 13 -33 62 -46 198 -52 l133 -6 7 -90 c3 -50 6 -123 6 -164 0 -68 -3 -77
-31 -113 -41 -51 -49 -107 -20 -155 l21 -37 -64 -221 c-98 -337 -107 -378 -92
-423 12 -40 58 -49 231 -48 187 1 260 18 283 67 15 31 -1 99 -107 447 -55 185
-58 197 -44 224 20 39 11 98 -22 141 -25 34 -26 41 -32 205 l-6 170 34 0 c19
0 57 -3 86 -6 l52 -7 45 -106 c24 -58 63 -153 86 -210 22 -57 48 -117 56 -133
61 -118 417 -150 803 -72 324 65 676 226 921 421 110 87 217 200 247 261 35
71 30 99 -51 313 -36 96 -66 185 -66 196 0 15 55 62 210 177 115 86 216 166
225 178 24 35 19 91 -10 121 -37 36 1 33 -1132 72 -550 19 -521 19 -574 -8z
m796 -147 c513 -11 697 -19 690 -30 -6 -10 -423 -322 -720 -540 -115 -84 -252
-184 -303 -223 -51 -38 -114 -81 -140 -95 l-47 -26 -380 -4 c-209 -1 -452 1
-540 5 l-160 8 125 71 c69 39 271 149 449 245 344 185 358 196 327 245 -34 50
-44 46 -366 -131 -52 -29 -174 -95 -270 -148 -96 -52 -254 -138 -351 -190
-171 -94 -176 -96 -224 -89 l-48 7 44 35 c65 52 334 248 664 483 160 114 337
247 395 296 l105 90 160 0 c88 1 354 -3 590 -9z m361 -527 c47 -111 104 -271
104 -294 0 -34 -167 -196 -300 -292 -179 -128 -463 -253 -715 -316 -264 -66
-646 -64 -690 3 -14 20 -124 292 -139 344 l-7 22 451 0 c384 0 456 2 488 15
20 9 77 47 127 84 154 117 648 471 657 471 4 0 15 -17 24 -37z m-2098 -1380
c66 -227 67 -234 51 -244 -20 -12 -189 -12 -189 1 0 6 19 77 41 158 23 81 44
157 46 170 3 12 9 22 13 22 4 0 21 -48 38 -107z"/>
</g>
</svg>
